<svg width="35" height="35" viewBox="0 0 35 35" fill="none" xmlns="http://www.w3.org/2000/svg">
<path fill-rule="evenodd" clip-rule="evenodd" d="M12.2859 18.2108C13.6609 17.4805 15.1162 17.0893 16.6518 17.0372C18.8473 16.9598 21.0425 16.8788 23.2377 16.7944C24.0909 16.7239 24.9049 16.4945 25.6797 16.1064C25.7043 16.1334 25.7291 16.1604 25.7537 16.1874C24.8739 17.3569 23.7392 18.0449 22.3497 18.2513C20.2872 18.2488 18.2276 18.1544 16.1708 17.968C15.3348 18.0132 14.5084 18.1346 13.6918 18.3322C13.0499 18.5078 12.4826 18.8316 11.9899 19.3035C12.3106 19.1966 12.6312 19.0617 12.9519 18.8988C13.8763 18.5616 14.8259 18.4132 15.8008 18.4536C17.8587 18.6557 19.9184 18.8446 21.9797 19.0202C22.5075 18.9786 23.0255 18.9112 23.5337 18.8178C23.0023 19.4727 22.3363 19.8504 21.5358 19.9509C20.9191 20.0049 20.3024 20.0049 19.6858 19.9509C17.6265 19.5395 15.5546 19.4046 13.4698 19.5463C11.8246 19.7771 11.1709 20.7619 11.5089 22.5005C11.6529 23.0312 11.8749 23.5169 12.1749 23.9573C12.6706 24.5939 13.2009 25.1874 13.7658 25.7379C10.844 24.2841 9.49965 21.8021 9.7329 18.2917C10.4451 15.6239 11.9867 13.7759 14.3578 12.7476C16.7189 11.7699 19.0621 10.7447 21.3878 9.67196C23.1349 8.83791 24.7259 7.74526 26.1607 6.39402C26.968 5.49125 27.4614 4.41203 27.6407 3.15654C27.69 2.85977 27.69 2.563 27.6407 2.26623C27.5407 1.48178 27.3681 0.726368 27.1227 0C28.1675 1.72921 28.5128 3.61774 28.1587 5.66558C27.9864 6.97361 27.456 8.06625 26.5677 8.94353C25.3983 9.94949 24.1157 10.7589 22.7197 11.3716C20.2702 12.4176 17.8036 13.4159 15.3198 14.3663C18.0953 13.4179 20.9073 12.5816 23.7557 11.8573C25.0372 11.4799 26.2212 10.8864 27.3077 10.0766C28.1109 9.22333 28.5919 8.18466 28.7507 6.96057C28.9439 9.73323 27.8709 11.6892 25.5317 12.8285C25.118 13.0063 24.6986 13.1682 24.2737 13.3141C21.5111 14.0156 18.7484 14.717 15.9858 15.4185C14.8804 15.7042 13.8444 16.1629 12.8779 16.7944C13.911 16.3821 14.9717 16.0313 16.0598 15.7422C19.0472 15.1906 22.0318 14.6241 25.0137 14.0426C25.5916 13.8882 26.1342 13.6454 26.6417 13.3141C26.9542 13.0263 27.2132 12.689 27.4187 12.3024C27.4615 13.3019 27.1285 14.1247 26.4197 14.771C25.6815 15.3227 24.8675 15.6735 23.9777 15.8232C22.3002 15.9514 20.6228 16.0862 18.9458 16.2278C16.8501 16.3669 14.8275 16.8525 12.8779 17.6847C12.6618 17.8422 12.4644 18.0176 12.2859 18.2108ZM12.2859 18.2108C12.2487 18.3391 12.1747 18.3796 12.0639 18.3322C12.1189 18.2481 12.1929 18.2076 12.2859 18.2108Z" fill="white"/>
<path fill-rule="evenodd" clip-rule="evenodd" d="M9.76953 0.242188C9.86817 0.286856 9.86817 0.286856 9.76953 0.242188V0.242188Z" fill="#F9FAF9"/>
<path fill-rule="evenodd" clip-rule="evenodd" d="M34.9258 2.26562C35.0244 2.31029 35.0244 2.31029 34.9258 2.26562V2.26562Z" fill="#F9FAF9"/>
<path fill-rule="evenodd" clip-rule="evenodd" d="M17.8359 2.50781C17.9346 2.55248 17.9346 2.55248 17.8359 2.50781V2.50781Z" fill="#F9FAF9"/>
<path fill-rule="evenodd" clip-rule="evenodd" d="M26.9355 2.91406C27.0342 2.95873 27.0342 2.95873 26.9355 2.91406V2.91406Z" fill="#F9FAF9"/>
<path fill-rule="evenodd" clip-rule="evenodd" d="M20.7207 4.53125C20.8193 4.57594 20.8193 4.57594 20.7207 4.53125V4.53125Z" fill="#F9FAF9"/>
<path fill-rule="evenodd" clip-rule="evenodd" d="M18.2031 5.58594C18.3018 5.63063 18.3018 5.63063 18.2031 5.58594V5.58594Z" fill="#F9FAF9"/>
<path fill-rule="evenodd" clip-rule="evenodd" d="M32.5605 5.58594C32.6592 5.63063 32.6592 5.63063 32.5605 5.58594V5.58594Z" fill="#F9FAF9"/>
<path fill-rule="evenodd" clip-rule="evenodd" d="M24.4941 6.39062C24.5928 6.43531 24.5928 6.43531 24.4941 6.39062V6.39062Z" fill="#F9FAF9"/>
<path fill-rule="evenodd" clip-rule="evenodd" d="M3.84766 7.12109C3.94632 7.16578 3.94632 7.16578 3.84766 7.12109V7.12109Z" fill="#F9FAF9"/>
<path fill-rule="evenodd" clip-rule="evenodd" d="M3.33008 7.52344C3.42874 7.56813 3.42874 7.56813 3.33008 7.52344V7.52344Z" fill="#F9FAF9"/>
<path fill-rule="evenodd" clip-rule="evenodd" d="M29.9707 7.6875C30.0693 7.73219 30.0693 7.73219 29.9707 7.6875V7.6875Z" fill="#F9FAF9"/>
<path fill-rule="evenodd" clip-rule="evenodd" d="M34.041 8.66016C34.1397 8.70485 34.1397 8.70485 34.041 8.66016V8.66016Z" fill="#F9FAF9"/>
<path fill-rule="evenodd" clip-rule="evenodd" d="M20.3516 8.82422C20.4502 8.86891 20.4502 8.86891 20.3516 8.82422V8.82422Z" fill="#F9FAF9"/>
<path fill-rule="evenodd" clip-rule="evenodd" d="M10.582 9.39062C10.6807 9.43531 10.6807 9.43531 10.582 9.39062V9.39062Z" fill="white"/>
<path fill-rule="evenodd" clip-rule="evenodd" d="M14.1328 9.39062C14.2315 9.43531 14.2315 9.43531 14.1328 9.39062V9.39062Z" fill="#F9FAF9"/>
<path fill-rule="evenodd" clip-rule="evenodd" d="M10.5829 9.46875C10.5163 9.79905 10.3683 10.0823 10.1389 10.3186C9.84768 10.5685 9.52697 10.7574 9.17695 10.8851C9.98717 11.2997 10.6778 11.8798 11.2489 12.6253C12.9087 11.8477 14.6353 11.3755 16.4289 11.2089C14.6587 11.6474 12.9568 12.2949 11.3229 13.1514C8.35245 14.9952 7.05747 17.7875 7.43797 21.5283C7.50827 22.0475 7.60691 22.5601 7.73397 23.0661C8.05017 24.0525 8.42016 24.9968 8.84396 25.8989C6.79366 23.32 6.17704 20.3794 6.99398 17.0768C7.14834 15.6165 7.13598 14.1596 6.95698 12.7062C6.93345 12.6134 6.88416 12.5459 6.80898 12.5039C6.26479 12.238 5.69749 12.0627 5.107 11.9778C4.85149 11.9852 4.64183 12.0931 4.47801 12.3015C4.42933 12.0162 4.51566 11.7869 4.73701 11.6136C5.11845 11.4638 5.51312 11.3693 5.92099 11.3303C6.0675 10.7519 6.38815 10.3337 6.88298 10.0758C7.91645 9.98812 8.95244 9.90719 9.99094 9.83297C10.2239 9.77323 10.4212 9.65183 10.5829 9.46875ZM6.73498 11.0875C6.8482 11.1334 6.9592 11.1873 7.06798 11.2494C7.10172 11.35 7.06472 11.4175 6.95698 11.4517C6.64685 11.5263 6.35085 11.4993 6.06899 11.3708C6.28795 11.2409 6.50995 11.1465 6.73498 11.0875Z" fill="white"/>
<path fill-rule="evenodd" clip-rule="evenodd" d="M3.70117 10.6055C3.79983 10.6502 3.79983 10.6502 3.70117 10.6055V10.6055Z" fill="#F9FAF9"/>
<path fill-rule="evenodd" clip-rule="evenodd" d="M29.377 11.4922C29.4756 11.5369 29.4756 11.5369 29.377 11.4922V11.4922Z" fill="#F9FAF9"/>
<path fill-rule="evenodd" clip-rule="evenodd" d="M31.9688 11.7305C32.0674 11.7752 32.0674 11.7752 31.9688 11.7305V11.7305Z" fill="#F9FAF9"/>
<path fill-rule="evenodd" clip-rule="evenodd" d="M2.29102 12.625C2.38968 12.6697 2.38968 12.6697 2.29102 12.625V12.625Z" fill="#F9FAF9"/>
<path fill-rule="evenodd" clip-rule="evenodd" d="M4.2207 13.8398C4.31937 13.8845 4.31937 13.8845 4.2207 13.8398V13.8398Z" fill="#F9FAF9"/>
<path fill-rule="evenodd" clip-rule="evenodd" d="M30.5625 14.4844C30.6611 14.5291 30.6611 14.5291 30.5625 14.4844V14.4844Z" fill="#F9FAF9"/>
<path fill-rule="evenodd" clip-rule="evenodd" d="M26.7129 14.6484C26.8115 14.6931 26.8115 14.6931 26.7129 14.6484V14.6484Z" fill="#F9FAF9"/>
<path fill-rule="evenodd" clip-rule="evenodd" d="M28.2676 15.2969C28.3662 15.3416 28.3662 15.3416 28.2676 15.2969V15.2969Z" fill="#F9FAF9"/>
<path fill-rule="evenodd" clip-rule="evenodd" d="M29.3047 15.2969C29.4033 15.3416 29.4033 15.3416 29.3047 15.2969V15.2969Z" fill="#F9FAF9"/>
<path fill-rule="evenodd" clip-rule="evenodd" d="M23.3848 16.0273C23.4834 16.072 23.4834 16.072 23.3848 16.0273V16.0273Z" fill="#F9FAF9"/>
<path fill-rule="evenodd" clip-rule="evenodd" d="M12.8768 26.7891C14.2313 28.0969 15.7853 29.0277 17.5387 29.5814C18.1792 29.7 18.8205 29.8079 19.4627 29.9052C17.2899 30.563 15.292 30.1853 13.4688 28.7721C12.885 28.3307 12.3423 27.8316 11.8408 27.2747C11.8161 27.2883 11.7914 27.3017 11.7668 27.3152C12.4876 28.2656 13.3016 29.102 14.2088 29.8242C15.3407 30.5197 16.5494 30.7895 17.8347 30.6336C16.8607 31.1888 15.8247 31.3777 14.7267 31.2002C14.1601 31.0386 13.6421 30.7688 13.1728 30.3908C11.3622 28.3601 9.96846 26.0264 8.99182 23.3898C8.48463 21.7719 8.38591 20.1262 8.69582 18.4526C8.93099 17.5489 9.35027 16.7666 9.9538 16.1055C8.57698 20.5711 9.79796 23.9029 13.6168 26.1012C16.0752 27.4381 18.6406 28.4363 21.3127 29.0958C19.4861 29.5318 17.7101 29.3429 15.9847 28.5293C14.9356 27.969 13.8996 27.3889 12.8768 26.7891ZM12.6548 26.6272C12.7678 26.6213 12.8418 26.6753 12.8768 26.7891C12.7638 26.795 12.6898 26.741 12.6548 26.6272Z" fill="white"/>
<path fill-rule="evenodd" clip-rule="evenodd" d="M20.8672 16.1875C20.9658 16.2322 20.9658 16.2322 20.8672 16.1875V16.1875Z" fill="#F9FAF9"/>
<path fill-rule="evenodd" clip-rule="evenodd" d="M31.6719 17.7266C31.7705 17.7713 31.7705 17.7713 31.6719 17.7266V17.7266Z" fill="#F9FAF9"/>
<path fill-rule="evenodd" clip-rule="evenodd" d="M22.793 18.2891C22.8916 18.3338 22.8916 18.3338 22.793 18.2891V18.2891Z" fill="#F9FAF9"/>
<path fill-rule="evenodd" clip-rule="evenodd" d="M3.25781 19.0977C3.35648 19.1423 3.35648 19.1423 3.25781 19.0977V19.0977Z" fill="#F9FAF9"/>
<path fill-rule="evenodd" clip-rule="evenodd" d="M4.88281 20.1484C4.98148 20.1931 4.98148 20.1931 4.88281 20.1484V20.1484Z" fill="#F9FAF9"/>
<path fill-rule="evenodd" clip-rule="evenodd" d="M14.2812 20.2305C14.3799 20.2752 14.3799 20.2752 14.2812 20.2305V20.2305Z" fill="#F9FAF9"/>
<path fill-rule="evenodd" clip-rule="evenodd" d="M28.3418 20.8008C28.4404 20.8455 28.4404 20.8455 28.3418 20.8008V20.8008Z" fill="#F9FAF9"/>
<path fill-rule="evenodd" clip-rule="evenodd" d="M0.222656 21.5273C0.321319 21.572 0.321319 21.572 0.222656 21.5273V21.5273Z" fill="#F9FAF9"/>
<path fill-rule="evenodd" clip-rule="evenodd" d="M16.2812 21.6094C16.3799 21.6541 16.3799 21.6541 16.2812 21.6094V21.6094Z" fill="#F9FAF9"/>
<path fill-rule="evenodd" clip-rule="evenodd" d="M34.1875 21.7695C34.2861 21.8142 34.2861 21.8142 34.1875 21.7695V21.7695Z" fill="#F9FAF9"/>
<path fill-rule="evenodd" clip-rule="evenodd" d="M19.6113 21.9336C19.71 21.9783 19.71 21.9783 19.6113 21.9336V21.9336Z" fill="#F9FAF9"/>
<path fill-rule="evenodd" clip-rule="evenodd" d="M30.1895 22.5C30.2881 22.5447 30.2881 22.5447 30.1895 22.5V22.5Z" fill="#F9FAF9"/>
<path fill-rule="evenodd" clip-rule="evenodd" d="M12.4336 22.582C12.5322 22.6267 12.5322 22.6267 12.4336 22.582V22.582Z" fill="#F9FAF9"/>
<path fill-rule="evenodd" clip-rule="evenodd" d="M0 23.2305C0.098663 23.2752 0.098663 23.2752 0 23.2305V23.2305Z" fill="#F9FAF9"/>
<path fill-rule="evenodd" clip-rule="evenodd" d="M31.4531 23.2305C31.5518 23.2752 31.5518 23.2752 31.4531 23.2305V23.2305Z" fill="#F9FAF9"/>
<path fill-rule="evenodd" clip-rule="evenodd" d="M12.5801 23.6367C12.6787 23.6814 12.6787 23.6814 12.5801 23.6367V23.6367Z" fill="#F9FAF9"/>
<path fill-rule="evenodd" clip-rule="evenodd" d="M3.55469 24.1172C3.65335 24.1619 3.65335 24.1619 3.55469 24.1172V24.1172Z" fill="#F9FAF9"/>
<path fill-rule="evenodd" clip-rule="evenodd" d="M3.03516 24.1992C3.13382 24.2439 3.13382 24.2439 3.03516 24.1992V24.1992Z" fill="#F9FAF9"/>
<path fill-rule="evenodd" clip-rule="evenodd" d="M26.0469 24.3633C26.1455 24.408 26.1455 24.408 26.0469 24.3633V24.3633Z" fill="#F9FAF9"/>
<path fill-rule="evenodd" clip-rule="evenodd" d="M13.7617 25.7344C13.8111 25.7344 13.8357 25.7567 13.8357 25.8014C13.8111 25.7791 13.7864 25.7567 13.7617 25.7344Z" fill="white"/>
<path fill-rule="evenodd" clip-rule="evenodd" d="M13.8398 25.8164C13.9385 25.8611 13.9385 25.8611 13.8398 25.8164V25.8164Z" fill="white"/>
<path fill-rule="evenodd" clip-rule="evenodd" d="M15.4648 26.7891C15.5635 26.8338 15.5635 26.8338 15.4648 26.7891V26.7891Z" fill="#F9FAF9"/>
<path fill-rule="evenodd" clip-rule="evenodd" d="M34.1133 28.1641C34.2119 28.2088 34.2119 28.2088 34.1133 28.1641V28.1641Z" fill="#F9FAF9"/>
<path fill-rule="evenodd" clip-rule="evenodd" d="M20.3516 28.2461C20.4502 28.2908 20.4502 28.2908 20.3516 28.2461V28.2461Z" fill="#F9FAF9"/>
<path fill-rule="evenodd" clip-rule="evenodd" d="M10.8789 28.4062C10.9775 28.4509 10.9775 28.4509 10.8789 28.4062V28.4062Z" fill="#F9FAF9"/>
<path fill-rule="evenodd" clip-rule="evenodd" d="M5.17969 28.7305C5.27835 28.7752 5.27835 28.7752 5.17969 28.7305Z" fill="#F9FAF9"/>
<path fill-rule="evenodd" clip-rule="evenodd" d="M31.9688 31.2422C32.0674 31.2869 32.0674 31.2869 31.9688 31.2422V31.2422Z" fill="#F9FAF9"/>
<path fill-rule="evenodd" clip-rule="evenodd" d="M0.150391 31.5625C0.249054 31.6072 0.249054 31.6072 0.150391 31.5625V31.5625Z" fill="#F9FAF9"/>
<path fill-rule="evenodd" clip-rule="evenodd" d="M17.1699 31.8047C17.2686 31.8494 17.2686 31.8494 17.1699 31.8047V31.8047Z" fill="#F9FAF9"/>
<path fill-rule="evenodd" clip-rule="evenodd" d="M15.6152 32.375C15.7139 32.4197 15.7139 32.4197 15.6152 32.375V32.375Z" fill="#F9FAF9"/>
<path fill-rule="evenodd" clip-rule="evenodd" d="M15.8379 32.6992C15.9365 32.7439 15.9365 32.7439 15.8379 32.6992V32.6992Z" fill="#F9FAF9"/>
<path fill-rule="evenodd" clip-rule="evenodd" d="M17.8359 32.7773C17.9346 32.822 17.9346 32.822 17.8359 32.7773V32.7773Z" fill="#F9FAF9"/>
<path fill-rule="evenodd" clip-rule="evenodd" d="M13.4668 33.3438C13.5654 33.3884 13.5654 33.3884 13.4668 33.3438V33.3438Z" fill="#F9FAF9"/>
<path fill-rule="evenodd" clip-rule="evenodd" d="M32.041 34.0742C32.1397 34.1189 32.1397 34.1189 32.041 34.0742V34.0742Z" fill="#F9FAF9"/>
<path fill-rule="evenodd" clip-rule="evenodd" d="M25.8262 34.7227C25.9248 34.7673 25.9248 34.7673 25.8262 34.7227V34.7227Z" fill="#F9FAF9"/>
<path fill-rule="evenodd" clip-rule="evenodd" d="M5.62305 34.9648C5.72171 35.0095 5.72171 35.0095 5.62305 34.9648V34.9648Z" fill="#F9FAF9"/>
</svg>
